<mxfile host="app.diagrams.net" modified="2023-08-15T10:11:45.302Z" agent="Mozilla/5.0 (Windows NT 10.0; Win64; x64) AppleWebKit/537.36 (KHTML, like Gecko) Chrome/115.0.0.0 Safari/537.36" etag="Y5nM4HKlu7OMJe5yUKqE" version="21.6.8" type="github">
  <diagram name="Страница — 1" id="i_y5CRP_dipzjTFHZLnv">
    <mxGraphModel dx="1434" dy="758" grid="1" gridSize="10" guides="1" tooltips="1" connect="1" arrows="1" fold="1" page="1" pageScale="1" pageWidth="827" pageHeight="1169" math="0" shadow="0">
      <root>
        <mxCell id="0" />
        <mxCell id="1" parent="0" />
        <mxCell id="1QYp-sn4FT9Y7IqIMKNG-1" value="&lt;div style=&quot;text-align: center;&quot;&gt;&lt;span style=&quot;font-size: 14px; background-color: initial;&quot;&gt;HTML/CSS&lt;/span&gt;&lt;/div&gt;&lt;div style=&quot;text-align: justify; font-size: 14px;&quot;&gt;&lt;/div&gt;" style="rounded=1;whiteSpace=wrap;html=1;align=left;" parent="1" vertex="1">
          <mxGeometry x="80" y="110" width="120" height="60" as="geometry" />
        </mxCell>
        <mxCell id="1QYp-sn4FT9Y7IqIMKNG-2" value="&lt;font style=&quot;font-size: 14px;&quot;&gt;Javascript/TS&lt;/font&gt;" style="rounded=1;whiteSpace=wrap;html=1;align=left;" parent="1" vertex="1">
          <mxGeometry x="360" y="110" width="120" height="60" as="geometry" />
        </mxCell>
        <mxCell id="1QYp-sn4FT9Y7IqIMKNG-3" value="&lt;font style=&quot;font-size: 14px;&quot;&gt;React/Redux&lt;/font&gt;" style="rounded=1;whiteSpace=wrap;html=1;align=left;" parent="1" vertex="1">
          <mxGeometry x="640" y="110" width="120" height="60" as="geometry" />
        </mxCell>
        <mxCell id="1QYp-sn4FT9Y7IqIMKNG-4" value="&lt;font style=&quot;font-size: 18px;&quot;&gt;1. Повторение и систематизация базовых основ.&lt;/font&gt;" style="text;html=1;align=center;verticalAlign=middle;resizable=0;points=[];autosize=1;strokeColor=none;fillColor=none;" parent="1" vertex="1">
          <mxGeometry x="190" y="43" width="430" height="40" as="geometry" />
        </mxCell>
        <mxCell id="1QYp-sn4FT9Y7IqIMKNG-5" value="Курсы по React, Redux c Neostudy" style="text;html=1;align=center;verticalAlign=middle;resizable=0;points=[];autosize=1;strokeColor=none;fillColor=none;" parent="1" vertex="1">
          <mxGeometry x="600" y="200" width="210" height="30" as="geometry" />
        </mxCell>
        <mxCell id="1QYp-sn4FT9Y7IqIMKNG-7" value="" style="edgeStyle=orthogonalEdgeStyle;rounded=0;orthogonalLoop=1;jettySize=auto;html=1;" parent="1" source="1QYp-sn4FT9Y7IqIMKNG-3" target="1QYp-sn4FT9Y7IqIMKNG-5" edge="1">
          <mxGeometry relative="1" as="geometry">
            <mxPoint x="710" y="208" as="sourcePoint" />
            <Array as="points">
              <mxPoint x="680" y="220" />
              <mxPoint x="722" y="220" />
            </Array>
          </mxGeometry>
        </mxCell>
        <mxCell id="1QYp-sn4FT9Y7IqIMKNG-9" value="Лекция С.Вихрова по HTML, CSS" style="text;html=1;align=center;verticalAlign=middle;resizable=0;points=[];autosize=1;strokeColor=none;fillColor=none;" parent="1" vertex="1">
          <mxGeometry x="35" y="220" width="210" height="30" as="geometry" />
        </mxCell>
        <mxCell id="1QYp-sn4FT9Y7IqIMKNG-11" value="" style="curved=1;endArrow=classic;html=1;rounded=0;" parent="1" target="1QYp-sn4FT9Y7IqIMKNG-9" edge="1">
          <mxGeometry width="50" height="50" relative="1" as="geometry">
            <mxPoint x="145" y="170" as="sourcePoint" />
            <mxPoint x="100" y="190" as="targetPoint" />
            <Array as="points">
              <mxPoint x="160" y="210" />
              <mxPoint x="110" y="160" />
            </Array>
          </mxGeometry>
        </mxCell>
      </root>
    </mxGraphModel>
  </diagram>
</mxfile>
